<?xml version="1.0" standalone="no"?>
<!DOCTYPE svg PUBLIC "-//W3C//DTD SVG 20010904//EN"
 "http://www.w3.org/TR/2001/REC-SVG-20010904/DTD/svg10.dtd">
<svg version="1.0" xmlns="http://www.w3.org/2000/svg"
 width="260.000000pt" height="260.000000pt" viewBox="0 0 260.000000 260.000000"
 preserveAspectRatio="xMidYMid meet">
<metadata>
Created by potrace 1.14, written by Peter Selinger 2001-2017
</metadata>
<g transform="translate(0.000000,260.000000) scale(0.100000,-0.100000)"
fill="#000000" stroke="none">
<path d="M320 2584 c-143 -39 -256 -150 -301 -296 -18 -60 -19 -101 -16 -1008
l2 -945 22 -55 c46 -111 142 -207 253 -253 l55 -22 965 0 965 0 55 22 c111 46
207 142 253 253 l22 55 0 965 0 965 -22 55 c-46 111 -142 207 -253 253 l-55
22 -945 2 c-806 2 -953 0 -1000 -13z"/>
</g>
</svg>
